<svg xmlns="http://www.w3.org/2000/svg" xmlns:svg="http://www.w3.org/2000/svg" id="svg132" width="721" height="720" version="1.1" viewBox="0 0 721 720"><g id="g138" transform="matrix(1.6542957,0,0,1.6542957,-238.62523,-236.45541)"><path style="fill:#000" id="path8303" d="m 229.2897,572.41224 c -35.64967,-3.45199 -63.7854,-26.37274 -74.7994,-60.93527 -2.56559,-8.05096 -2.75842,-10.05843 -3.65007,-38 -1.08009,-33.84663 -1.54274,-243.29155 0.82842,-247.80107 12.25926,-28.01054 40.47761,-57.18488 70.08942,-70.13518 16.40893,-5.12776 4.56056,-6.56437 142.71289,-6.54771 121.71657,0.0147 133.65614,0.16098 140.7341,1.72459 32.77172,7.23967 57.43948,30.62914 67.02143,63.54838 l 2.24447,7.71099 v 139 139 l -2.29411,7.92195 c -10.36654,35.79737 -39.18668,60.36456 -75.70589,64.53408 -10.67244,1.21851 -254.57872,1.19956 -267.18126,-0.0208 z m 25.42392,-84.9378 c 16.03666,-2.08308 25.25016,-10.5017 28.2018,-25.76873 1.37311,-7.1023 2.19074,-104.63726 0.99565,-118.77274 -1.63442,-19.33203 -4.54525,-28.06114 -11.76476,-35.28065 -6.3449,-6.34491 -10.18877,-7.67535 -22.17534,-7.67535 -9.48546,0 -11.05309,0.2716 -16.22425,2.81095 -7.28247,3.57613 -11.71694,8.77621 -14.81916,17.37769 l -2.45659,6.81136 v 67 c 0,74.52973 -0.0674,73.70675 6.75862,82.58129 3.88848,5.05546 11.89821,9.77621 18.45909,10.87937 2.63026,0.44226 5.00729,0.84314 5.28229,0.89085 0.275,0.0477 3.75919,-0.33661 7.74265,-0.85404 z m 121.96537,-3.12518 c 7.8326,-3.72992 12.66491,-9.27613 15.53532,-17.83047 2.10297,-6.26721 2.2098,-8.38884 2.54475,-50.54182 0.47063,-59.22809 -0.92695,-72.13046 -9.7605,-90.10835 -6.8436,-13.92796 -20.20291,-24.61386 -36.25926,-29.00321 -8.95234,-2.44732 -28.14129,-2.95119 -37.0352,-0.97248 -8.32632,1.85243 -18.33962,6.38674 -21.28057,9.63645 -1.79958,1.98851 -1.80157,2.35717 -0.0664,12.2489 0.98398,5.60928 2.03975,15.70342 2.34617,22.43141 l 0.55712,12.23273 2.60526,-0.73273 c 1.43289,-0.40299 6.09233,-0.69926 10.3543,-0.65837 7.08159,0.0679 8.07212,0.33547 11.5,3.10602 8.04736,6.50419 7.6802,3.95578 8.33015,57.81963 0.5511,45.67234 0.68421,48.32022 2.74491,54.60342 3.66408,11.17203 11.99391,18.60934 23.30764,20.81029 7.62207,1.48277 17.69291,0.23646 24.57629,-3.04142 z m 107.55836,1.55261 c 5.6259,-1.91694 12.88438,-8.11966 16.27788,-13.91023 4.82977,-8.24138 5.42021,-14.54948 5.43016,-58.01467 0.005,-22 -0.45355,-44.03928 -1.01909,-48.97619 -3.38447,-29.54483 -15.45808,-51.77615 -33.67198,-62.00072 -18.05493,-10.13534 -46.28613,-11.31456 -65.78336,-2.74779 -7.14669,3.14014 -12.28154,6.28056 -12.91825,7.90065 -0.25418,0.64678 0.84509,6.0085 2.44284,11.91494 1.59774,5.90644 3.63719,15.72726 4.5321,21.82404 0.89492,6.09679 1.71926,11.18107 1.83188,11.2984 0.11261,0.11733 2.39277,-0.44517 5.06702,-1.25 9.01758,-2.71389 18.67427,-1.36851 23.86422,3.32481 1.04116,0.94152 2.85762,3.51186 4.0366,5.71186 2.07923,3.8799 2.16108,5.42614 2.72604,51.5 0.56607,46.16445 0.64711,47.68908 2.88237,54.22465 3.48794,10.19825 10.18928,16.83438 20.03518,19.84022 4.60461,1.40574 19.40838,1.01532 24.26639,-0.63997 z M 252.5187,258.21317 c 0.57196,-1.4905 -2.48604,-10.04309 -13.31391,-37.2362 -4.38003,-11 -8.94982,-23.00344 -10.1551,-26.67432 -1.20527,-3.67087 -2.87601,-7.24248 -3.71274,-7.93691 -2.27186,-1.88547 -8.83765,0.89005 -17.59289,7.43694 -15.22694,11.38623 -26.45189,24.3525 -32.7696,37.85314 -3.24285,6.92982 -7.35407,21.76035 -6.81278,24.57597 0.30814,1.60284 2.90365,1.78771 31.8224,2.26664 17.31779,0.2868 36.11351,0.6243 41.76827,0.75 7.5357,0.16751 10.4109,-0.10896 10.76635,-1.03526 z m 71.85769,0.18262 c 0.81789,-0.8053 -2.69632,-10.76819 -12.66963,-35.91882 -4.68913,-11.825 -9.87346,-25.325 -11.52075,-30 -1.64729,-4.675 -3.80291,-10.1875 -4.79027,-12.25 l -1.7952,-3.75 -9.06479,-0.007 c -4.98564,-0.004 -15.70229,0.53561 -23.81478,1.1991 -16.31511,1.33436 -16.25579,1.29861 -13.31323,8.02422 1.38441,3.16426 13.58143,33.93661 23.66914,59.71585 2.67561,6.83756 5.28734,12.68756 5.80383,13 1.24028,0.75028 46.73312,0.73773 47.49568,-0.0131 z m 69.59457,-1.05134 c 0,-1.17288 -5.14823,-15.23538 -11.4405,-31.25 -6.29228,-16.01461 -12.8114,-32.89998 -14.48693,-37.52305 -5.07858,-14.01266 -2.40304,-12.79868 -27.59331,-12.51996 -11.93157,0.13202 -22.11671,0.66298 -22.63364,1.17991 -1.03323,1.03323 4.38097,15.94517 19.87691,54.74562 5.27175,13.2 10.26055,24.7875 11.08623,25.75 1.34461,1.56745 3.78001,1.75 23.34623,1.75 21.63084,0 21.84501,-0.0209 21.84501,-2.13252 z m 73.85468,0.72233 c 0.73421,-0.45376 0.45603,-2.01969 -0.86674,-4.87902 -1.07139,-2.31593 -6.94732,-17.26079 -13.05764,-33.21079 -15.11054,-39.44362 -16.05346,-41.81534 -17.20184,-43.26747 -0.77041,-0.97418 -6.57892,-1.20557 -25.10221,-1 -22.02807,0.24448 -24.12877,0.41782 -24.43617,2.01637 -0.38173,1.98515 1.16937,6.18925 18.1213,49.11571 7.94448,20.11741 12.77676,31.08586 13.87768,31.5 2.2335,0.8402 47.27302,0.58588 48.66562,-0.2748 z m 83.97712,-1.12834 c 0.49694,-2.32069 -4.44505,-18.75589 -7.43615,-24.72984 -15.01311,-29.98487 -42.95001,-50.24163 -76.85058,-55.72356 -4.33735,-0.70137 -6.14866,-0.64948 -6.66813,0.19104 -0.9497,1.53665 7.72127,25.08798 21.09664,57.30089 3.42555,8.25 6.88351,17.10956 7.68437,19.68792 1.0699,3.44458 2.03772,4.79059 3.64907,5.07504 1.20614,0.21291 14.79298,0.24332 30.19298,0.0676 24.3079,-0.2774 28.04375,-0.52386 28.3318,-1.86906 z"/><path style="fill:#e7000b;fill-opacity:1;stroke-width:6.50323;stroke-linecap:round;paint-order:markers stroke fill" id="path9765" d="m 190.91613,257.7672 c -11.75226,-0.33777 -21.47226,-0.67615 -21.6,-0.75195 -0.84646,-0.50231 0.11425,-6.69991 2.10172,-13.55826 3.80064,-13.1152 9.80989,-23.42339 20.01382,-34.33142 9.85421,-10.53418 26.93043,-22.8546 31.6767,-22.8546 2.15412,0 3.26784,2.36363 12.47585,26.47742 3.90234,10.21935 9.14003,23.89239 11.63934,30.38453 2.4993,6.49214 4.54418,12.65859 4.54418,13.70323 0,1.85906 -0.41862,1.89558 -19.74193,1.72226 -10.85807,-0.0974 -29.35742,-0.45343 -41.10968,-0.79121 z"/><path style="fill:#e7000b;fill-opacity:1;stroke-width:6.50323;stroke-linecap:round;paint-order:markers stroke fill" id="path15227" d="m 279.17419,257.93696 c -1.85973,-0.54175 -3.10688,-2.51985 -6.25823,-9.92612 -6.86624,-16.13704 -26.2579,-65.47942 -26.2579,-66.81366 0,-0.70499 1.14968,-1.51903 2.55484,-1.80898 4.46054,-0.92039 26.18722,-2.40755 35.1732,-2.40755 7.67606,0 8.76979,0.2085 9.64194,1.83811 1.18052,2.20584 18.67801,47.31108 25.32543,65.2842 2.59846,7.02566 4.41163,13.0876 4.02926,13.47097 -0.90965,0.91203 -41.18844,1.24279 -44.20854,0.36303 z"/><path style="fill:#e7000b;fill-opacity:1;stroke-width:6.50323;stroke-linecap:round;paint-order:markers stroke fill" id="path15229" d="m 350.06825,258.00386 c -2.45631,-1.56175 -30.50196,-71.82595 -31.14785,-78.03632 l -0.26234,-2.52238 14.4,-0.73314 c 18.71869,-0.95301 27.64761,-0.40248 29.74222,1.83382 0.86877,0.92753 7.33996,16.73674 14.38044,35.13158 15.00005,39.19101 16.40691,43.14691 15.73256,44.23803 -0.61599,0.99669 -41.28451,1.08061 -42.84503,0.0884 z"/><path style="fill:#e7000b;fill-opacity:1;stroke-width:6.50323;stroke-linecap:round;paint-order:markers stroke fill" id="path15231" d="m 422.70968,257.97676 c -4.63687,-0.79211 -4.30365,-0.1438 -18.9491,-36.86708 -13.62498,-34.16449 -15.88961,-40.18638 -15.88961,-42.25217 0,-2.23828 5.52055,-2.78788 28.10322,-2.79782 16.35161,-0.007 18.52812,0.17166 19.99997,1.6435 0.90836,0.90837 5.3574,11.25546 9.88675,22.99355 4.52935,11.73808 11.33669,29.22497 15.12742,38.85975 3.79073,9.63478 6.73967,17.67035 6.55319,17.85683 -0.67331,0.6733 -41.20666,1.18272 -44.83184,0.56344 z"/><path style="fill:#e7000b;fill-opacity:1;stroke-width:6.50323;stroke-linecap:round;paint-order:markers stroke fill" id="path15233" d="m 492.68904,257.85277 c -0.85587,-0.54433 -2.0598,-2.5542 -2.67541,-4.46639 -0.61561,-1.91219 -5.82582,-15.18251 -11.57824,-29.48961 -12.21081,-30.37001 -17.66596,-45.86362 -16.5434,-46.98618 1.0749,-1.0749 17.47355,2.3429 25.20626,5.25349 8.41057,3.16572 20.92258,9.91555 27.11114,14.62557 11.81562,8.9927 23.99995,23.79959 29.73466,36.13479 3.57347,7.68642 7.90207,22.93009 6.81884,24.01332 -1.26597,1.26597 -56.16204,2.13091 -58.07385,0.91501 z"/><path style="fill:#e7000b;fill-opacity:1;stroke-width:6.50323;stroke-linecap:round;paint-order:markers stroke fill" id="path15235" d="m 243.1925,487.12875 c -9.08883,-1.56616 -18.88075,-8.45777 -22.7257,-15.9945 -2.99864,-5.87782 -3.46907,-17.01018 -3.50463,-82.93476 l -0.0331,-61.45213 2.65597,-6.52647 c 3.15675,-7.75705 5.65898,-11.0464 11.27952,-14.82771 6.40483,-4.30896 10.16061,-5.13219 21.26286,-4.66064 11.49537,0.48824 13.60767,1.34834 19.94177,8.12001 5.32898,5.69711 7.34142,9.99585 9.59202,20.48939 1.54228,7.19093 1.69226,13.33588 1.67787,68.74838 l -0.0158,60.85162 -2.14536,6.88063 c -1.82866,5.86496 -2.92343,7.64843 -7.41645,12.08201 -3.51629,3.46977 -6.81754,5.74404 -9.91627,6.83143 -6.06181,2.12719 -15.70806,3.24477 -20.65267,2.39274 z"/><path style="fill:#e7000b;fill-opacity:1;stroke-width:6.50323;stroke-linecap:round;paint-order:markers stroke fill" id="path15237" d="m 349.78065,486.46696 c -8.71017,-2.87776 -15.29174,-8.81085 -19.15269,-17.26557 -3.13593,-6.86707 -3.93086,-17.76346 -4.06947,-55.78204 -0.11857,-32.51976 -1.13028,-50.2605 -3.07607,-53.94034 -0.79413,-1.50184 -3.04061,-3.98482 -4.99218,-5.51772 -3.46466,-2.7214 -3.79472,-2.7871 -14.00139,-2.7871 h -10.45309 l -0.41389,-2.78709 c -0.22764,-1.53291 -0.65348,-7.17678 -0.94632,-12.54194 -0.29284,-5.36516 -1.19415,-13.92017 -2.0029,-19.01114 l -1.47046,-9.2563 2.72854,-2.43796 c 4.02403,-3.59546 15.81969,-8.16909 24.10924,-9.34807 8.72042,-1.24026 24.22883,-0.48212 32.19869,1.57406 19.28718,4.97597 34.94933,20.63788 41.26714,41.26651 3.95441,12.91173 4.40388,20.21279 4.40388,71.53548 v 48.7742 l -2.20762,6.73792 c -2.83467,8.65181 -7.47249,14.02639 -15.52404,17.99015 -5.29093,2.60472 -7.11542,3.00049 -15.04787,3.26421 -4.96481,0.16506 -10.07209,-0.0452 -11.3495,-0.46726 z"/><path style="fill:#e7000b;fill-opacity:1;stroke-width:6.50323;stroke-linecap:round;paint-order:markers stroke fill" id="path15239" d="m 462.10188,486.46165 c -5.2749,-1.1109 -13.1086,-5.99014 -16.32067,-10.16536 -1.61776,-2.10284 -3.85631,-6.24073 -4.97456,-9.19531 -2.34434,-6.19403 -2.49054,-8.86602 -3.59815,-65.75904 -0.67934,-34.89435 -0.84007,-37.38799 -2.63487,-40.87742 -4.48997,-8.72938 -13.84696,-12.07732 -26.26395,-9.39727 -3.32129,0.71686 -6.13375,1.21785 -6.2499,1.11332 -0.11616,-0.10453 -1.28559,-6.0176 -2.59874,-13.14015 -1.31315,-7.12255 -3.20392,-16.15524 -4.20171,-20.07263 -2.69263,-10.57144 -2.59619,-11.02429 3.06325,-14.38391 23.51211,-13.9575 60.37442,-12.16722 79.71514,3.8715 12.88834,10.68795 22.08708,29.11024 25.43328,50.93521 1.76487,11.51106 2.60215,54.72479 1.56883,80.9707 -0.72645,18.45147 -1.11974,22.10275 -2.88164,26.75317 -2.43528,6.42777 -9.60851,14.20173 -15.8098,17.13382 -4.63225,2.19021 -18.39219,3.44631 -24.24651,2.21337 z"/></g></svg>